<svg width="100" height="100" viewBox="0 0 100 100" fill="none" xmlns="http://www.w3.org/2000/svg">
<path d="M85.4838 87.0967C92.61 87.0967 98.387 81.3198 98.387 74.1935C98.387 67.0673 92.61 61.2903 85.4838 61.2903C78.3575 61.2903 72.5806 67.0673 72.5806 74.1935C72.5806 81.3198 78.3575 87.0967 85.4838 87.0967Z" fill="white"/>
<path d="M14.4307 46.4195L14.5162 46.7743C15.9372 52.4582 18.0098 57.9162 20.6678 63.0501L19.3549 91.9356H16.1291C14.3469 91.9356 12.9033 93.3791 12.9033 95.1614V98.3872H27.4194L29.9436 76.9243C33.5695 81.2211 37.6904 85.1227 42.2469 88.5404L46.7743 91.9356H43.5485C41.7662 91.9356 40.3227 93.3791 40.3227 95.1614V98.3872H77.4194V97.5953C77.4194 92.9066 79.1211 88.3775 82.2082 84.8501C86.4001 80.0598 88.7098 73.9114 88.7098 67.5469C88.7098 53.4017 77.2436 41.9356 63.0985 41.9356H49.7227C46.8017 41.9356 44.0001 40.7759 41.9356 38.7098L41.534 38.2437" fill="#E8E8E8"/>
<path d="M22.645 43.942C29.0918 57.9178 44.3257 67.742 62.0966 67.742C71.6563 67.742 80.4805 64.8985 87.6015 60.0969C84.4095 49.5872 74.6515 41.9356 63.0982 41.9356H49.7224C46.8015 41.9356 43.9999 40.7759 41.9353 38.7098L41.5337 38.2437" fill="white"/>
<path d="M74.7305 11.2903C74.3757 11.2903 74.0241 11.3613 73.6967 11.4967C61.4192 16.6129 48.4063 19.7258 35.1483 20.7467C32.7257 18.9096 29.637 17.7419 25.8063 17.7419C14.6709 17.7419 1.61279 29.079 1.61279 37.0967C1.61279 45.1145 10.6386 46.7742 21.7741 46.7742C32.9096 46.7742 41.9354 43.5016 41.9354 35.4838C41.9354 33.3709 41.5789 31.1435 40.8644 29.0032C51.7144 28.8532 62.4902 27.1758 72.866 23.9822C75.5725 23.1483 77.4192 20.6483 77.4192 17.8161V13.979C77.4192 12.4935 76.216 11.2903 74.7305 11.2903Z" fill="#E8E8E8"/>
<path d="M73.697 11.4967C74.0244 11.3612 74.376 11.2902 74.7308 11.2902C75.1147 11.2902 75.4776 11.3725 75.8066 11.5176V10.2063C75.8066 7.75795 75.0824 5.36441 73.7244 3.32731C73.0099 2.25634 71.8083 1.61279 70.5212 1.61279C69.7615 1.61279 69.0179 1.83699 68.3857 2.25957C56.2889 10.3241 42.5083 15.516 28.0986 17.437L25.8066 17.7418C29.6373 17.7418 32.726 18.9096 35.1486 20.7467C48.4066 19.7257 61.4212 16.6128 73.697 11.4967V11.4967Z" fill="white"/>
<path d="M62.9034 93.5485H46.7744V90.3227H58.068C51.9341 84.8614 48.3873 77.0614 48.3873 68.6549V62.9033H51.6131V68.6549C51.6131 77.6227 56.1534 85.8146 63.7583 90.5678C64.368 90.9485 64.6534 91.6872 64.4551 92.3791C64.2567 93.0711 63.6228 93.5485 62.9034 93.5485Z" fill="#939393"/>
<path d="M17.7419 33.871C15.9629 33.871 14.5161 32.4243 14.5161 30.6452C14.5161 28.8662 15.9629 27.4194 17.7419 27.4194C19.521 27.4194 20.9677 28.8662 20.9677 30.6452C20.9677 32.4243 19.521 33.871 17.7419 33.871Z" fill="#243242"/>
<path d="M89.2839 60.1871C86.0613 48.7452 75.5565 40.3226 63.1 40.3226H49.7242C47.3161 40.3226 45.05 39.4145 43.3016 37.7742C43.45 37.0403 43.5484 36.2839 43.5484 35.4839C43.5484 33.8677 43.3532 32.2 42.9774 30.5677C53.3097 30.2403 63.5129 28.5452 73.3403 25.5242C76.7452 24.4758 79.0323 21.379 79.0323 17.8161V13.979C79.0323 12.629 78.3952 11.4371 77.4194 10.6484V10.2065C77.4194 7.43065 76.6048 4.74194 75.0661 2.43226C74.0516 0.908064 72.3516 0 70.521 0C69.4403 0 68.3936 0.316129 67.4919 0.916129C55.6677 8.8 41.9726 13.9581 27.8855 15.8371L25.6129 16.1403C14.0694 16.2677 0 27.7419 0 37.0968C0 44.6 6.73871 47.1065 13.171 47.95C14.5677 53.2952 16.5274 58.4919 19.0355 63.4048L17.8129 90.3226H16.129C13.4613 90.3226 11.2903 92.4935 11.2903 95.1613V98.3871C11.2903 99.279 12.0129 100 12.9032 100H27.4194C28.2371 100 28.9258 99.3871 29.021 98.5758L31.1258 80.6903C34.2274 84.029 37.6323 87.0952 41.2806 89.8306L42.2161 90.5323C40.1984 91.1161 38.7097 92.9581 38.7097 95.1613V98.3871C38.7097 99.279 39.4323 100 40.3226 100H77.4194C78.3097 100 79.0323 99.279 79.0323 98.3871V97.5952C79.0323 94.2548 79.9855 91.0097 81.7339 88.2065C82.95 88.5323 84.2032 88.7097 85.4839 88.7097C93.4871 88.7097 100 82.1984 100 74.1935C100 67.6258 95.6016 61.8952 89.2839 60.1871ZM69.279 3.60161C70.2758 2.94032 71.7226 3.22903 72.3823 4.22097C73.479 5.86613 74.0742 7.76613 74.1597 9.73387C73.7919 9.78387 73.429 9.8629 73.0774 10.0081C61.1468 14.979 48.5452 18.0355 35.6161 19.0919C35.0887 18.7226 34.5387 18.4 33.9758 18.0984C46.5355 15.6484 58.6403 10.6935 69.279 3.60161ZM3.22581 37.0968C3.22581 30.0903 15.3371 19.3548 25.8065 19.3548C29.0145 19.3548 31.829 20.2565 34.1742 22.0323C34.4887 22.2694 34.8823 22.3903 35.2726 22.3548C48.75 21.3161 61.8871 18.1645 74.3145 12.9855C75.0097 12.7016 75.8065 13.2435 75.8065 13.979V17.8161C75.8065 19.9532 74.4339 21.8129 72.3903 22.4403C62.1952 25.5758 51.5806 27.2419 40.8403 27.3887C40.3258 27.3968 39.8452 27.6484 39.5468 28.0677C39.2484 28.4887 39.1694 29.0242 39.3323 29.5129C39.9806 31.4516 40.3226 33.5161 40.3226 35.4839C40.3226 44.2177 27.3516 45.1613 21.7742 45.1613C8.77258 45.1613 3.22581 42.75 3.22581 37.0968V37.0968ZM75.8226 96.7742H41.9355V95.1613C41.9355 94.271 42.6597 93.5484 43.5484 93.5484H62.9032C63.6226 93.5484 64.2548 93.071 64.4532 92.379C64.6516 91.6871 64.3677 90.9484 63.7565 90.5677C56.1532 85.8145 51.6129 77.6226 51.6129 68.6548V62.9032H48.3871V68.6548C48.3871 77.0613 51.9339 84.8613 58.0677 90.3226H47.3113L43.2161 87.2516C38.7903 83.9323 34.7403 80.1081 31.1774 75.8855C30.7645 75.3935 30.0968 75.1984 29.4806 75.3806C28.8645 75.5661 28.4177 76.0984 28.3419 76.7371L25.9855 96.7742H14.5161V95.1613C14.5161 94.271 15.2403 93.5484 16.129 93.5484H19.3548C20.2177 93.5484 20.9274 92.8694 20.9661 92.0081L22.279 63.1226C22.2919 62.8403 22.2306 62.5597 22.1 62.3081C19.7855 57.8403 17.9629 53.121 16.6113 48.2694C18.5726 48.3806 20.379 48.3871 21.7742 48.3871C32.15 48.3871 39.2065 45.7435 42.0887 40.9629C44.2758 42.6323 46.9258 43.5484 49.7242 43.5484H63.1C76.3323 43.5484 87.0968 54.3145 87.0968 67.5468C87.0968 73.5226 84.929 79.2903 80.9952 83.7871C77.829 87.4032 76.0097 91.9887 75.8226 96.7742V96.7742ZM85.4839 85.4839C84.9371 85.4839 84.3984 85.4323 83.8645 85.3565C88.021 80.3548 90.3226 74.0661 90.3226 67.5468C90.3226 66.2952 90.2081 65.0726 90.0435 63.8645C94.0806 65.6419 96.7742 69.6613 96.7742 74.1935C96.7742 80.4177 91.7097 85.4839 85.4839 85.4839Z" fill="black"/>
<path d="M17.7419 33.871C19.5235 33.871 20.9677 32.4268 20.9677 30.6452C20.9677 28.8637 19.5235 27.4194 17.7419 27.4194C15.9604 27.4194 14.5161 28.8637 14.5161 30.6452C14.5161 32.4268 15.9604 33.871 17.7419 33.871Z" fill="black"/>
</svg>
